<svg width="35" height="36" viewBox="0 0 35 36" fill="none" xmlns="http://www.w3.org/2000/svg">
<path d="M11 6.66666L7 12V30.6667C7 31.3739 7.28095 32.0522 7.78105 32.5523C8.28115 33.0524 8.95942 33.3333 9.66667 33.3333H28.3333C29.0406 33.3333 29.7189 33.0524 30.219 32.5523C30.719 32.0522 31 31.3739 31 30.6667V12L27 6.66666H11Z" stroke="black" stroke-width="3" stroke-linecap="round" stroke-linejoin="round"/>
<path d="M7 12H31" stroke="black" stroke-width="3" stroke-linecap="round" stroke-linejoin="round"/>
<path d="M24.3333 17.3333C24.3333 18.7478 23.7714 20.1044 22.7712 21.1046C21.771 22.1048 20.4145 22.6667 19 22.6667C17.5855 22.6667 16.2289 22.1048 15.2288 21.1046C14.2286 20.1044 13.6667 18.7478 13.6667 17.3333" stroke="black" stroke-width="3" stroke-linecap="round" stroke-linejoin="round"/>
<path d="M3.33803 12C2.78404 12 2.277 11.9065 1.8169 11.7194C1.3662 11.5323 0.985916 11.2627 0.676056 10.9106C0.366197 10.5585 0.140845 10.1513 0 9.68913L0.84507 8.50069C0.910798 8.7868 1.04695 9.0729 1.25352 9.35901C1.46948 9.64512 1.74648 9.8762 2.08451 10.0523C2.43192 10.2283 2.83568 10.3164 3.29577 10.3164C3.69953 10.3164 4.05634 10.2448 4.3662 10.1018C4.68545 9.94773 4.93897 9.73315 5.12676 9.45805C5.31455 9.18294 5.40845 8.85832 5.40845 8.48418C5.40845 8.06603 5.29578 7.71389 5.07042 7.42779C4.84507 7.14168 4.52113 6.9271 4.09859 6.78404C3.67606 6.64099 3.16901 6.56946 2.57746 6.56946H2.09859V5.11692H2.57746C3.35681 5.11692 3.97653 4.96836 4.43662 4.67125C4.9061 4.37414 5.14085 3.93398 5.14085 3.35076C5.14085 2.98762 5.05634 2.674 4.88732 2.4099C4.71831 2.1348 4.49765 1.93122 4.22535 1.79918C3.95305 1.65612 3.65258 1.58459 3.32394 1.58459C2.78873 1.58459 2.32394 1.72765 1.92958 2.01376C1.53521 2.29986 1.24883 2.65199 1.07042 3.07015L0.0563381 1.76616C0.253521 1.40303 0.525822 1.08941 0.87324 0.82531C1.22066 0.561211 1.61033 0.357634 2.04225 0.214581C2.48357 0.0715269 2.92958 0 3.38028 0C4.03756 0 4.62441 0.137552 5.14085 0.412655C5.65728 0.687758 6.06103 1.0674 6.35211 1.55158C6.64319 2.02476 6.78873 2.56396 6.78873 3.16919C6.78873 3.60935 6.70892 4.0055 6.5493 4.35763C6.39906 4.70977 6.1784 5.00688 5.88732 5.24897C5.60563 5.48006 5.26761 5.65062 4.87324 5.76066C5.29577 5.84869 5.66667 6.03576 5.98592 6.32187C6.31455 6.60798 6.56338 6.96011 6.73239 7.37827C6.9108 7.79642 7 8.2531 7 8.74828C7 9.43054 6.83099 10.0138 6.49296 10.4979C6.16432 10.9821 5.723 11.3563 5.16901 11.6204C4.61502 11.8735 4.0047 12 3.33803 12Z" fill="white"/>
</svg>
